PathFileType	4	(X/Y/Z)	./resultDataOpenSim/trcMotMarkerGrf/sub09/qtm-13-03.trc
DataRate	CameraRate	NumFrames	NumMarkers	Units	OrigDataRate	OrigDataStartFrame	OrigNumFrames
250.000000	250.000000	8	24	m	250.000000	128	510
Frame#	Time	L.Toe.Tip			R.Toe.Tip			L.Ankle.Lat			R.Ankle.Lat			L.Ankle.Med			R.Ankle.Med			L.Heel			R.Heel			L.Knee.Lat			R.Knee.Lat			L.Knee.Med			R.Knee.Med			L.Thigh.Upper			R.Thigh.Upper			L.ASIS			R.ASIS			V.Sacral			L.Acromium			R.Acromium			C7			L.Elbow			R.Elbow			L.Wrist.Lat			R.Wrist.Lat
		X1	Y1	Z1	X2	Y2	Z2	X3	Y3	Z3	X4	Y4	Z4	X5	Y5	Z5	X6	Y6	Z6	X7	Y7	Z7	X8	Y8	Z8	X9	Y9	Z9	X10	Y10	Z10	X11	Y11	Z11	X12	Y12	Z12	X13	Y13	Z13	X14	Y14	Z14	X15	Y15	Z15	X16	Y16	Z16	X17	Y17	Z17	X18	Y18	Z18	X19	Y19	Z19	X20	Y20	Z20	X21	Y21	Z21	X22	Y22	Z22	X23	Y23	Z23	X24	Y24	Z24

128	0.508	-0.25231619	0.083273187	-0.055960899	-0.64728757	0.040653886	0.050108168	-0.40476172	0.092932588	-0.0936465	-0.79731393	0.055472742	0.075120281	-0.38498899	0.11227613	0.0021743238	-0.77662307	0.10214455	-0.010200598	-0.46365754	0.03850885	-0.043224105	-0.86025283	0.034514495	0.019263369	-0.43489944	0.51102164	-0.11676276	-0.68510198	0.50034388	0.15501346	-0.43919878	0.50260721	0.0080115325	-0.69472438	0.49442048	0.027511775	-0.61536406	0.8924269	-0.15060317	-0.65511456	0.90434896	0.21964442	-0.54665972	0.98069136	-0.087018696	-0.54729935	0.98708471	0.15289403	-0.71237819	1.0384109	0.026660392	-0.56874321	1.4329764	-0.14387568	-0.56803192	1.4459068	0.18517211	-0.63114325	1.4901416	0.0221192	-0.73844058	1.1057852	-0.19384443	-0.68346272	1.1010243	0.29232939	-0.61832966	0.87081133	-0.23270739	-0.48009813	0.9107414	0.30619286
129	0.512	-0.23510163	0.0863368	-0.053818158	-0.64724971	0.040553552	0.050170843	-0.38778286	0.092501037	-0.09207404	-0.797194	0.055754317	0.074933753	-0.36849588	0.11288535	0.0038525383	-0.77635358	0.10203725	-0.010529999	-0.44540885	0.037080113	-0.041457358	-0.86018142	0.034624809	0.018891847	-0.42898041	0.50960009	-0.11707716	-0.68373537	0.49967065	0.15488964	-0.4330014	0.50130216	0.0079475016	-0.69254501	0.49404441	0.02750339	-0.60939759	0.89090235	-0.15052732	-0.65056892	0.90363147	0.21956165	-0.54058318	0.97922956	-0.086825958	-0.54232926	0.98591621	0.15313946	-0.70657124	1.0370854	0.026317293	-0.56301871	1.4318665	-0.14389258	-0.56268193	1.4446974	0.1852288	-0.62555562	1.4889378	0.022091349	-0.73307993	1.1049762	-0.19401596	-0.67767966	1.0995706	0.29249056	-0.61422257	0.86951824	-0.23299986	-0.47330968	0.9104081	0.30604955
130	0.516	-0.21817681	0.089583783	-0.051735145	-0.64720771	0.040494168	0.050242546	-0.37108265	0.092256222	-0.090535646	-0.79699475	0.056103941	0.07474468	-0.35220631	0.11371767	0.0054507874	-0.77608681	0.10192306	-0.010839472	-0.42737764	0.035857016	-0.039723413	-0.86010575	0.034745274	0.018521265	-0.42312773	0.50809271	-0.11730989	-0.68227677	0.49891651	0.15480908	-0.42666891	0.49991178	0.0081140436	-0.69026415	0.49365271	0.027517958	-0.6034038	0.88928838	-0.15039667	-0.64603248	0.90284739	0.21947776	-0.53448126	0.97769407	-0.086603876	-0.53746588	0.98464487	0.15341355	-0.70075349	1.0356886	0.025982711	-0.5573185	1.4306927	-0.14393238	-0.55730076	1.4434122	0.1852847	-0.61994464	1.4876793	0.022057066	-0.72768732	1.1040743	-0.19420535	-0.67189445	1.0980403	0.29263933	-0.61004352	0.86815579	-0.23328883	-0.46655707	0.90997966	0.30591238
131	0.52	-0.20157424	0.092972104	-0.049767362	-0.64717477	0.04048771	0.050337208	-0.35467311	0.092194744	-0.089059548	-0.79679606	0.056411005	0.07452716	-0.33619451	0.11468508	0.0068570895	-0.77581538	0.10180595	-0.011132463	-0.40958528	0.034829056	-0.038091037	-0.86002646	0.034881179	0.018156456	-0.41726801	0.50650701	-0.117409	-0.68051429	0.49813802	0.15479575	-0.42015916	0.49844285	0.0085082925	-0.68794978	0.49323028	0.027543916	-0.59739167	0.88758779	-0.15021896	-0.64148474	0.90198651	0.21939489	-0.52837213	0.97609319	-0.08635893	-0.53255562	0.98331985	0.15370742	-0.69491892	1.0342288	0.025660754	-0.55167797	1.4294499	-0.14397913	-0.55187322	1.4420417	0.18532653	-0.61431528	1.4863649	0.022015009	-0.72226261	1.1030852	-0.19441434	-0.66611619	1.0964424	0.29277943	-0.60578679	0.86671773	-0.23357102	-0.4598383	0.9094534	0.30577937
132	0.524	-0.18533079	0.096457249	-0.047929433	-0.64715187	0.040497165	0.050424248	-0.33850418	0.092328237	-0.087665731	-0.79665523	0.056610602	0.074274964	-0.32053407	0.11570926	0.0080657725	-0.77552438	0.10169394	-0.011420861	-0.39204205	0.033993576	-0.03664086	-0.85994295	0.035034835	0.01779815	-0.41134037	0.50486337	-0.11734814	-0.67807965	0.49744373	0.15494544	-0.41359352	0.4968791	0.0090159915	-0.68559301	0.49275543	0.027558105	-0.59135845	0.88580453	-0.15002528	-0.63690492	0.90105107	0.21930187	-0.52227444	0.97443752	-0.086103634	-0.5274822	0.9819822	0.154004	-0.68907826	1.0327002	0.025346739	-0.54604921	1.4281246	-0.14402787	-0.54640655	1.4405865	0.18534847	-0.6086772	1.4849899	0.021963417	-0.7168068	1.1020149	-0.19464619	-0.66034859	1.094781	0.29291272	-0.6014599	0.86520085	-0.23385691	-0.45315205	0.90882943	0.30564772
133	0.528	-0.16946033	0.10000095	-0.046191904	-0.647127	0.040447362	0.050448299	-0.32255382	0.092665337	-0.086366907	-0.79656215	0.056728246	0.074014826	-0.30525996	0.11675692	0.0091591661	-0.77520699	0.10159292	-0.011714885	-0.37477472	0.033350702	-0.035435514	-0.85985443	0.035207021	0.017442286	-0.40526984	0.50319431	-0.11712972	-0.67482515	0.49689783	0.15526517	-0.40709891	0.4952178	0.0095243156	-0.68313109	0.49221228	0.027549681	-0.58530727	0.88393732	-0.14984109	-0.63228127	0.90005139	0.21918386	-0.51619219	0.97273943	-0.085855161	-0.52223561	0.98064436	0.15428425	-0.68325456	1.0310888	0.025027822	-0.54037272	1.4267134	-0.14408685	-0.54092128	1.4390632	0.18535914	-0.60303222	1.4835512	0.021901309	-0.71132043	1.1008661	-0.19490449	-0.65458298	1.093054	0.29303204	-0.59709673	0.86360903	-0.23416899	-0.44649805	0.90811777	0.30551355
134	0.532	-0.15395844	0.10357711	-0.044522527	-0.64708701	0.040304332	0.050391878	-0.30686897	0.093186443	-0.085185521	-0.79647993	0.056816023	0.073773067	-0.29036928	0.11782521	0.010197389	-0.77486766	0.1015056	-0.012013905	-0.35785121	0.032888289	-0.034458289	-0.85975931	0.035401289	0.017083002	-0.39899845	0.50152981	-0.116782	-0.67108717	0.49642214	0.15560597	-0.40068496	0.49349095	0.010012097	-0.68049571	0.49159611	0.02751465	-0.57924247	0.88198758	-0.14967002	-0.62760275	0.89899752	0.21903826	-0.51011763	0.97100802	-0.085626109	-0.51685753	0.97930384	0.15453564	-0.67747087	1.029389	0.024690644	-0.53463518	1.4252267	-0.14416828	-0.53542121	1.4374889	0.18536944	-0.59737069	1.4820554	0.021829603	-0.70580314	1.0996385	-0.19519145	-0.64880959	1.0912628	0.29312976	-0.59273494	0.86195263	-0.23452651	-0.43987191	0.9073303	0.3053711
135	0.536	-0.1388369	0.10716222	-0.042914013	-0.64702332	0.040108944	0.050288895	-0.29152276	0.093849235	-0.084144455	-0.79638302	0.056902494	0.073544347	-0.27583664	0.1189278	0.01118003	-0.77451172	0.10143405	-0.012310486	-0.34135059	0.032571284	-0.033625254	-0.85965684	0.035625825	0.016718251	-0.39254025	0.49988378	-0.11634125	-0.66736476	0.49586805	0.15579763	-0.39429802	0.49175656	0.010519442	-0.6776356	0.49091258	0.027444393	-0.57315185	0.87996873	-0.14950874	-0.62285008	0.8978973	0.2188739	-0.50404491	0.96924493	-0.085416677	-0.51139803	0.97795415	0.1547561	-0.67174016	1.0276075	0.02432624	-0.52886123	1.4236796	-0.1442794	-0.52988965	1.4358677	0.18538179	-0.59168086	1.4805202	0.021748185	-0.70025502	1.0983332	-0.1955034	-0.64303009	1.0894213	0.29320959	-0.58836572	0.86024494	-0.23492566	-0.43326435	0.9064664	0.3052183
